# xmcd CD database file
#
# Track frame offsets:
#	150
#	16306
#	30646
#	51212
#	67384
#	85515
#	103377
#	117670
#	132635
#	149400
#	168898
#	180283
#	197630
#	214374
#
# Disc length: 3061 seconds
#
# Revision: 6
# Processed by: cddbd v1.5.2PL0 Copyright (c) Steve Scherf et al.
# Submitted via: CDex 1.51
#
DISCID=d30bf30e
DTITLE=Paris Combo - Motifs (2004)
DYEAR=2005
DGENRE=Jazz
TTITLE0=Paris Combo - high, low, in
TTITLE1=Paris Combo - calendar
TTITLE2=Paris Combo - aquarium
TTITLE3=Paris Combo - ennemis siamois
TTITLE4=Paris Combo - etoile pâle
TTITLE5=Paris Combo - touriste d'une vie
TTITLE6=Paris Combo - baguée
TTITLE7=Paris Combo - motus
TTITLE8=Paris Combo - reflet
TTITLE9=Paris Combo -  prete a porter
TTITLE10=Paris Combo - baron de chaise
TTITLE11=Paris Combo - discordance
TTITLE12=Paris Combo - aléas
TTITLE13=Paris Combo -  je ne sais qui fumer
EXTD=YEAR: 2005
EXTT0=
EXTT1=
EXTT2=
EXTT3=
EXTT4=
EXTT5=
EXTT6=
EXTT7=
EXTT8=
EXTT9=
EXTT10=
EXTT11=
EXTT12=
EXTT13=
PLAYORDER=
